<svg xmlns="http://www.w3.org/2000/svg" fill-rule="evenodd" fill="#000" viewBox="0 0 16 16">
  <path d="M 8.96413,4.5252805 C 9.436466,4.0806753 9.908803,3.6360701 10.381139,3.1914649 11.784676,4.814591 13.188214,6.4377171 14.591751,8.0608432 13.188214,9.6839691 11.784676,11.307095 10.381139,12.930221 9.91326,12.47507 9.445381,12.019918 8.977502,11.564767 10.007014,10.396792 11.036525,9.2288178 12.066037,8.0608432 11.032068,6.8823223 9.998099,5.7038014 8.96413,4.5252805 Z" />
  <path d="M 7.0193727,4.5252805 C 6.5470364,4.0806753 6.0747,3.6360701 5.6023637,3.1914649 4.1988263,4.814591 2.795289,6.4377171 1.3917516,8.0608432 2.795289,9.6839695 4.1988263,11.307096 5.6023637,12.930222 6.0702427,12.475071 6.5381217,12.019919 7.0060007,11.564768 5.976489,10.396793 4.9469774,9.2288181 3.9174657,8.0608432 4.9514347,6.8823223 5.9854037,5.7038014 7.0193727,4.5252805 Z" />
</svg>
