<svg xmlns="http://www.w3.org/2000/svg" fill-rule="evenodd" fill="#000" viewBox="0 0 16 16">
  <path d="M 8.8654153,2.5710974 C 9.168978,2.6711061 9.4725408,2.7711145 9.7761035,2.8711232 8.8906423,6.4309454 8.0051812,9.9907679 7.11972,13.55059 6.8161573,13.450581 6.5125945,13.350572 6.2090317,13.250563 7.0944929,9.6907411 7.9799542,6.1309192 8.8654153,2.5710974 Z"/>
  <path d="M 10.16413,4.5252805 C 10.636466,4.0806753 11.108803,3.6360701 11.581139,3.1914649 12.984676,4.814591 14.388214,6.4377171 15.791751,8.0608432 14.388214,9.6839691 12.984676,11.307095 11.581139,12.930221 11.11326,12.47507 10.645381,12.019918 10.177502,11.564767 11.207014,10.396792 12.236525,9.2288178 13.266037,8.0608432 12.232068,6.8823223 11.198099,5.7038014 10.16413,4.5252805 Z"/>
  <path d="M 5.8193727,4.5252805 C 5.3470364,4.0806753 4.8747,3.6360701 4.4023637,3.1914649 2.9988263,4.814591 1.595289,6.4377171 0.1917516,8.0608432 1.595289,9.6839695 2.9988263,11.307096 4.4023637,12.930222 4.8702427,12.475071 5.3381217,12.019919 5.8060007,11.564768 4.776489,10.396793 3.7469774,9.2288181 2.7174657,8.0608432 3.7514347,6.8823223 4.7854037,5.7038014 5.8193727,4.5252805 Z"/>
</svg>
